HIERARCHY
ROOT Hips
{
	OFFSET 0.000000 0.000000 0.000000
	CHANNELS 6 Xposition Yposition Zposition Zrotation Yrotation Xrotation 
	JOINT LHipJoint
	{
		OFFSET 0.000000 0.000000 0.000000
		CHANNELS 3 Zrotation Yrotation Xrotation
		JOINT LeftUpLeg
		{
			OFFSET 1.363060 -1.794630 0.839290
			CHANNELS 3 Zrotation Yrotation Xrotation
			JOINT LeftLeg
			{
				OFFSET 2.448110 -6.726130 0.000000
				CHANNELS 3 Zrotation Yrotation Xrotation
				JOINT LeftFoot
				{
					OFFSET 2.562200 -7.039590 0.000000
					CHANNELS 3 Zrotation Yrotation Xrotation
					JOINT LeftToeBase
					{
						OFFSET 0.157640 -0.433110 2.322550
						CHANNELS 3 Zrotation Yrotation Xrotation
						End Site
						{
							OFFSET 0.000000 0.000000 0.000000
						}
					}
				}
			}
		}
	}
	JOINT RHipJoint
	{
		OFFSET 0.000000 0.000000 0.000000
		CHANNELS 3 Zrotation Yrotation Xrotation
		JOINT RightUpLeg
		{
			OFFSET -1.305520 -1.794630 0.839290
			CHANNELS 3 Zrotation Yrotation Xrotation
			JOINT RightLeg
			{
				OFFSET -2.542530 -6.985550 0.000000
				CHANNELS 3 Zrotation Yrotation Xrotation
				JOINT RightFoot
				{
					OFFSET -2.568260 -7.056230 0.000000
					CHANNELS 3 Zrotation Yrotation Xrotation
					JOINT RightToeBase
					{
						OFFSET -0.164730 -0.452590 2.363150
						CHANNELS 3 Zrotation Yrotation Xrotation
						End Site
						{
							OFFSET 0.000000 0.000000 0.000000
						}
					}
				}
			}
		}
	}
}
MOTION
Frames: 14
Frame Time: 0.008333
2.161679 16.459266 1.211547 17.004395 71.511308 43.306157 -7.228589 -0.782209 0.080358 -10.638944 -3.503922 -51.265987 -2.853091 1.009960 25.893296 0.141582 0.332028 0.933377 0.394099 0.000000 -38.770200 12.670255 -1.069850 -2.295438 3.843688 0.276653 -20.020017 0.447759 -3.533218 47.836964 0.734541 9.827834 -0.592693 1.039000 0.000001 -68.664600
2.314373 16.393002 1.262877 18.518202 71.012012 44.368980 -7.092146 -0.663962 -0.206684 -11.757042 -3.301763 -51.642334 -2.770004 1.292708 29.052327 0.214711 0.599253 -0.036088 0.391700 0.000000 -38.097000 13.018430 -0.997171 -2.431982 3.030079 -0.552902 -20.636275 0.144497 -3.756266 50.401490 0.574157 8.884804 0.760432 1.176501 0.000000 -69.821300
2.462635 16.338297 1.312793 19.812320 70.493460 45.203707 -6.959626 -0.560272 -0.489924 -12.753959 -3.136256 -51.730875 -2.692667 1.515639 31.797115 0.309745 0.964075 -1.275955 0.381599 0.000000 -37.717800 13.333847 -0.900604 -2.578001 2.291987 -1.269721 -21.227485 -0.167161 -3.964222 52.888803 0.376313 7.724192 2.359847 1.283801 -0.000000 -69.797200
2.607132 16.296220 1.360900 20.889083 69.976261 45.814687 -6.837224 -0.470040 -0.761359 -13.610697 -3.019374 -51.524197 -2.628096 1.679177 34.082159 0.424169 1.413195 -2.708628 0.353800 -0.000000 -37.685700 13.609761 -0.782524 -2.734855 1.653526 -1.880489 -21.784654 -0.474694 -4.153507 55.268491 0.139802 6.339054 4.131902 1.317600 0.000000 -68.720100
2.748772 16.267200 1.406976 21.754595 69.479180 46.211546 -6.730853 -0.392464 -1.013022 -14.313532 -2.959014 -51.030196 -2.578917 1.786515 35.886608 0.554908 1.933043 -4.242630 0.301301 -0.000000 -37.983800 13.841065 -0.647917 -2.902721 1.136070 -2.396059 -22.304275 -0.764806 -4.322619 57.522094 -0.131413 4.735052 5.955268 1.232400 -0.000001 -66.520900
2.888489 16.251126 1.451074 22.418301 69.018316 46.408866 -6.645303 -0.327208 -1.237995 -14.854624 -2.959046 -50.270876 -2.544009 1.842767 37.211699 0.698082 2.511373 -5.779956 0.221600 0.000000 -38.541801 14.024468 -0.502980 -3.080059 0.758140 -2.828195 -22.786856 -1.027834 -4.470587 59.624576 -0.431795 2.916381 7.728097 0.993901 0.000000 -63.704300
3.027142 16.247325 1.493505 22.891490 68.604515 46.426397 -6.583784 -0.273672 -1.430882 -15.233501 -3.018571 -49.281646 -2.519807 1.854638 38.079521 0.848638 3.135605 -7.225896 0.118000 0.000000 -39.258300 14.159544 -0.355224 -3.264851 0.531245 -3.189346 -23.242272 -1.257351 -4.599543 61.573203 -0.749858 0.913400 9.302626 0.586300 -0.000000 -60.248200
3.165467 16.254875 1.534870 23.188149 68.244897 46.286590 -6.548650 -0.230533 -1.586813 -15.456992 -3.130850 -48.108018 -2.501467 1.829801 38.528140 1.000234 3.790924 -8.494814 -0.000600 0.000000 -40.025900 14.247385 -0.212202 -3.450780 0.461385 -3.486753 -23.682580 -1.452752 -4.710255 63.353866 -1.076194 -1.240351 10.595908 0.020300 -0.000000 -56.763300
3.304016 16.272501 1.575970 23.323678 67.941449 46.016789 -6.540295 -0.195824 -1.704105 -15.539483 -3.282184 -46.803577 -2.484430 1.776740 38.609915 1.145608 4.458007 -9.519973 -0.121101 -0.000000 -40.753600 14.291742 -0.080393 -3.631264 0.546694 -3.726079 -24.127877 -1.616565 -4.804994 64.968151 -1.399255 -3.483123 11.521966 -0.665900 0.000000 -53.450899
3.443015 16.298795 1.617863 23.319551 67.691865 45.649261 -6.557477 -0.166602 -1.783686 -15.502466 -3.452358 -45.424084 -2.465505 1.704070 38.385791 1.277331 5.112807 -10.258105 -0.228501 0.000000 -41.381300 14.298403 0.035460 -3.798988 0.776530 -3.912212 -24.601314 -1.753463 -4.886242 66.422373 -1.707553 -5.732055 12.018583 -1.408700 -0.000000 -50.389799
3.582423 16.332419 1.661613 23.200547 67.491011 45.217920 -6.597662 -0.139326 -1.828763 -15.372530 -3.615831 -44.023183 -2.443555 1.619787 37.919955 1.388487 5.726065 -10.693008 -0.308800 -0.000000 -41.884199 14.274279 0.132503 -3.945837 1.132704 -4.048302 -25.125781 -1.868340 -4.955879 67.721045 -1.990794 -7.890942 12.062727 -2.130200 0.000000 -47.638100
3.721964 16.372063 1.708306 22.995686 67.331686 44.758024 -6.657126 -0.110382 -1.845210 -15.178369 -3.742999 -42.647463 -2.419707 1.530745 37.274586 1.473475 6.265971 -10.835076 -0.351900 0.000000 -42.266500 14.226944 0.209898 -4.064529 1.590837 -4.136699 -25.720050 -1.964847 -5.015407 68.866863 -2.239330 -9.856590 11.663330 -2.750700 0.000001 -45.164000
3.861202 16.416616 1.758810 22.733980 67.205330 44.301604 -6.731391 -0.076594 -1.840854 -14.948504 -3.804299 -41.332805 -2.396933 1.442220 36.505518 1.528362 6.700725 -10.717409 -0.353901 -0.000000 -42.553700 14.163736 0.268755 -4.149254 2.121681 -4.178916 -26.396687 -2.044555 -5.065768 69.857892 -2.444429 -11.530738 10.863967 -3.204000 0.000000 -42.926200
3.999511 16.465108 1.813779 22.444082 67.102897 43.875320 -6.815838 -0.035689 -1.824716 -14.708049 -3.773403 -40.101946 -2.379309 1.357831 35.658731 1.551272 7.003391 -10.389095 -0.317400 0.000001 -42.785200 14.090966 0.311736 -4.196549 2.693943 -4.176021 -27.158686 -2.106975 -5.107301 70.687335 -2.598227 -12.829503 9.738886 -3.450200 0.000000 -40.901300
